<svg xmlns="http://www.w3.org/2000/svg" viewBox="0 0 113.76 40.66"><defs><style>.cls-1{fill:#eb2b7a;}.cls-2{fill:#2e3b40;}</style></defs><g id="Layer_2" data-name="Layer 2"><g id="Layer_1-2" data-name="Layer 1"><path class="cls-1" d="M25.44,33.55h-13L10,39.84H0L13.92,3.65H24.19L37.82,39.84h-10Zm-2.54-7.2L19.06,14.83H19L15.07,26.35Z"/><path class="cls-2" d="M49.3,0V39.84H40.56V0Z"/><path class="cls-2" d="M56,2.3a4.86,4.86,0,0,1,6.91,0,4.73,4.73,0,0,1,1.44,3.46,4.73,4.73,0,0,1-1.44,3.46,4.86,4.86,0,0,1-6.91,0,4.73,4.73,0,0,1-1.44-3.46A4.73,4.73,0,0,1,56,2.3Zm7.82,12.92V39.84H55.05V15.22Z"/><path class="cls-2" d="M79.1,22.42V39.84H70.37V22.42H67.53v-7.2h2.84V7.82H79.1v7.4h5v7.2Z"/><path class="cls-2" d="M113.76,15.22V39.84H105V37.1h-.1a6.73,6.73,0,0,1-3.11,2.67,10.67,10.67,0,0,1-4.32.89,11.53,11.53,0,0,1-8.91-3.87,13.29,13.29,0,0,1-3.53-9.29,13.31,13.31,0,0,1,3.48-9.26,11.42,11.42,0,0,1,8.86-3.84A9.46,9.46,0,0,1,105,17.62v-2.4Zm-10,8.37a6,6,0,0,0-8.21,0,5.55,5.55,0,0,0-1.51,4,5.62,5.62,0,1,0,11.23,0A5.55,5.55,0,0,0,103.8,23.59Z"/></g></g></svg>