<svg xmlns="http://www.w3.org/2000/svg" viewBox="0 0 85.32 30.49"><defs><style>.cls-1{fill:#eb2b7a;}.cls-2{fill:#2e3b40;}</style></defs><g id="Layer_2" data-name="Layer 2"><g id="Layer_1-2" data-name="Layer 1"><path class="cls-1" d="M19.08,25.16H9.36L7.49,29.88H0L10.44,2.74h7.7L28.37,29.88H20.84Zm-1.91-5.4-2.88-8.64h-.07L11.3,19.76Z"/><path class="cls-2" d="M37,0V29.88H30.42V0Z"/><path class="cls-2" d="M42,1.73a3.65,3.65,0,0,1,5.18,0,3.53,3.53,0,0,1,1.08,2.59,3.53,3.53,0,0,1-1.08,2.59,3.65,3.65,0,0,1-5.18,0A3.53,3.53,0,0,1,40.9,4.32,3.53,3.53,0,0,1,42,1.73Zm5.86,9.68V29.88H41.29V11.41Z"/><path class="cls-2" d="M59.33,16.81V29.88H52.77V16.81H50.65v-5.4h2.12V5.87h6.56v5.54H63v5.4Z"/><path class="cls-2" d="M85.32,11.41V29.88H78.77V27.83h-.08a5.1,5.1,0,0,1-2.34,2,8,8,0,0,1-3.24.66,8.62,8.62,0,0,1-6.67-2.9,9.93,9.93,0,0,1-2.65-7,10,10,0,0,1,2.61-6.95A8.56,8.56,0,0,1,73,10.8a7.11,7.11,0,0,1,5.73,2.41v-1.8Zm-7.47,6.28a4.55,4.55,0,0,0-6.16,0,4.21,4.21,0,0,0-1.13,3,4.21,4.21,0,1,0,8.42,0A4.21,4.21,0,0,0,77.85,17.69Z"/></g></g></svg>